<svg width="18" height="20" viewBox="0 0 18 20" fill="none" xmlns="http://www.w3.org/2000/svg">
<path d="M12.375 9.91985C12.375 10.8345 12.0194 11.7117 11.3865 12.3585C10.7536 13.0052 9.89511 13.3686 9 13.3686C8.1049 13.3686 7.24645 13.0052 6.61352 12.3585C5.98058 11.7117 5.625 10.8345 5.625 9.91985C5.625 9.0052 5.98058 8.128 6.61352 7.48124C7.24645 6.83448 8.1049 6.47113 9 6.47113C9.89511 6.47113 10.7536 6.83448 11.3865 7.48124C12.0194 8.128 12.375 9.0052 12.375 9.91985ZM12.375 9.91985C12.375 11.1897 13.1303 12.219 14.0625 12.219C14.9948 12.219 15.75 11.1897 15.75 9.91985C15.75 8.3241 15.2085 6.77771 14.2178 5.54418C13.2271 4.31065 11.8485 3.4663 10.3168 3.15499C8.78516 2.84369 7.19527 3.08469 5.81803 3.83694C4.44078 4.58918 3.3614 5.80613 2.7638 7.28042C2.16619 8.75472 2.08734 10.3951 2.54067 11.9222C2.994 13.4492 3.95147 14.7684 5.24994 15.655C6.54841 16.5415 8.10753 16.9406 9.66166 16.7841C11.2158 16.6277 12.6688 15.9255 13.773 14.7971M12.375 9.91985V7.04592" stroke="#6E6E73" stroke-width="1.5" stroke-linecap="round"/>
</svg>
