<svg width="20" height="21" viewBox="0 0 20 21" fill="none" xmlns="http://www.w3.org/2000/svg">
<path d="M12.5 9.33195C12.5 10.0095 12.2366 10.6593 11.7678 11.1383C11.2989 11.6174 10.663 11.8866 10 11.8866C9.33696 11.8866 8.70107 11.6174 8.23223 11.1383C7.76339 10.6593 7.5 10.0095 7.5 9.33195C7.5 8.65443 7.76339 8.00465 8.23223 7.52557C8.70107 7.04649 9.33696 6.77734 10 6.77734C10.663 6.77734 11.2989 7.04649 11.7678 7.52557C12.2366 8.00465 12.5 8.65443 12.5 9.33195Z" stroke="#6E6E73" stroke-width="1.5" stroke-linecap="round" stroke-linejoin="round"/>
<path d="M16.25 9.33183C16.25 15.4135 10 18.9116 10 18.9116C10 18.9116 3.75 15.4135 3.75 9.33183C3.75 7.63802 4.40848 6.01359 5.58058 4.81588C6.75268 3.61818 8.3424 2.94531 10 2.94531C11.6576 2.94531 13.2473 3.61818 14.4194 4.81588C15.5915 6.01359 16.25 7.63802 16.25 9.33183Z" stroke="#6E6E73" stroke-width="1.5" stroke-linecap="round" stroke-linejoin="round"/>
</svg>
