<svg width="16" height="16" viewBox="0 0 16 16" fill="none" xmlns="http://www.w3.org/2000/svg">
<path d="M1 4.1875C1 10.0553 5.75717 14.8125 11.625 14.8125H13.2188C13.6414 14.8125 14.0468 14.6446 14.3457 14.3457C14.6446 14.0468 14.8125 13.6414 14.8125 13.2188V12.2469C14.8125 11.8814 14.5639 11.5627 14.209 11.4741L11.076 10.6907C10.7644 10.6128 10.4371 10.7297 10.2452 10.9861L9.55808 11.902C9.35833 12.1683 9.01337 12.2859 8.701 12.1711C7.54137 11.7448 6.48827 11.0715 5.61464 10.1979C4.741 9.32422 4.0677 8.27113 3.64138 7.1115C3.52663 6.79912 3.64421 6.45417 3.91054 6.25442L4.82642 5.56733C5.08354 5.37537 5.19971 5.04742 5.12179 4.73646L4.33837 1.6035C4.29526 1.43116 4.1958 1.27816 4.05579 1.16882C3.91577 1.05948 3.74323 1.00006 3.56558 1H2.59375C2.17106 1 1.76568 1.16791 1.4668 1.4668C1.16791 1.76568 1 2.17106 1 2.59375V4.1875Z" stroke="#6E6E73" stroke-width="1.5" stroke-linecap="round" stroke-linejoin="round"/>
</svg>
