<svg width="18" height="19" viewBox="0 0 18 19" fill="none" xmlns="http://www.w3.org/2000/svg">
<path d="M9 16.4072C10.4962 16.4071 11.9501 15.8992 13.1333 14.9633C14.3164 14.0274 15.1619 12.7165 15.537 11.2364M9 16.4072C7.50376 16.4071 6.04991 15.8992 4.86673 14.9633C3.68356 14.0274 2.83806 12.7165 2.463 11.2364M9 16.4072C10.8638 16.4072 12.375 13.3187 12.375 9.50975C12.375 5.70083 10.8638 2.61231 9 2.61231M9 16.4072C7.13625 16.4072 5.625 13.3187 5.625 9.50975C5.625 5.70083 7.13625 2.61231 9 2.61231M15.537 11.2364C15.6758 10.6846 15.75 10.106 15.75 9.50975C15.7519 8.32347 15.4529 7.15694 14.8823 6.12387M15.537 11.2364C13.5369 12.3694 11.2869 12.9621 9 12.9585C6.6285 12.9585 4.40025 12.3339 2.463 11.2364M2.463 11.2364C2.32106 10.6723 2.2495 10.0922 2.25 9.50975C2.25 8.2797 2.565 7.124 3.11775 6.12387M9 2.61231C10.1972 2.61179 11.3729 2.93676 12.4066 3.55386C13.4403 4.17095 14.2948 5.05796 14.8823 6.12387M9 2.61231C7.80282 2.61179 6.62706 2.93676 5.59336 3.55386C4.55966 4.17095 3.70523 5.05796 3.11775 6.12387M14.8823 6.12387C13.2493 7.56921 11.1604 8.36335 9 8.36017C6.7515 8.36017 4.695 7.51715 3.11775 6.12387" stroke="#6E6E73" stroke-width="1.5" stroke-linecap="round" stroke-linejoin="round"/>
</svg>
