<svg width="236" height="236" viewBox="0 0 236 236" fill="none" xmlns="http://www.w3.org/2000/svg">
<path d="M124.494 152.505C121.608 157.505 114.391 157.505 111.504 152.505L84.8697 106.373C81.9829 101.373 85.5914 95.1228 91.3649 95.1228L144.634 95.1228C150.407 95.1228 154.016 101.373 151.129 106.373L124.494 152.505Z" stroke="#FF7600" stroke-opacity="0.3"/>
<path d="M128.827 179.515C124.016 187.848 111.987 187.848 107.176 179.515L59.3161 96.6185C54.5048 88.2851 60.5189 77.8685 70.1414 77.8685L165.862 77.8685C175.484 77.8685 181.498 88.2851 176.687 96.6185L128.827 179.515Z" stroke="#FF7600" stroke-opacity="0.3"/>
<path d="M134.022 207.25C126.901 219.583 109.099 219.583 101.979 207.25L32.6966 87.2501C25.576 74.9167 34.4768 59.5001 48.7181 59.5001L187.282 59.5001C201.523 59.5001 210.424 74.9167 203.304 87.2501L134.022 207.25Z" stroke="#FF7600" stroke-opacity="0.3"/>
</svg>
