<svg width="62" height="42" viewBox="0 0 62 42" fill="none" xmlns="http://www.w3.org/2000/svg">
  <path
    d="M17.2422 0.270845C17.9558 0.282337 18.6281 -0.018747 19.3406 0.00883317C20.4116 -0.000360211 21.4838 -0.0107028 22.5548 0.0249215C23.0145 0.0869769 23.4592 0.242115 23.9258 0.254756C25.0945 0.422535 26.2207 0.789122 27.3549 1.104C28.4777 1.47403 29.5889 1.89922 30.6174 2.4853C31.5919 3.07827 32.6032 3.62528 33.4835 4.3573C35.2095 5.66391 36.6299 7.31413 38.1951 8.80001C39.4614 10.1193 40.8129 11.3546 42.0356 12.7141C41.3886 13.3105 40.8163 13.9816 40.159 14.5689C38.4031 16.3374 36.5862 18.0486 34.8625 19.847C34.7039 19.893 34.5384 19.9045 34.3764 19.9297C34.3063 19.6068 34.0442 19.3827 33.8236 19.1575C32.448 17.775 31.0633 16.4006 29.6831 15.0228C28.4179 13.7644 27.2078 12.3854 25.5794 11.5845C24.4854 11.0742 23.342 10.618 22.1331 10.4767C21.4574 10.2583 20.738 10.356 20.0393 10.3537C18.3845 10.6157 16.7228 11.0685 15.2955 11.9786C12.8845 13.4484 11.2332 15.98 10.5827 18.6932C10.5609 19.0667 10.5954 19.4517 10.4701 19.8114C10.2805 20.4308 10.2943 21.0985 10.4713 21.719C10.6505 22.2557 10.4782 22.8498 10.7367 23.3669C11.0114 24.3828 11.4515 25.355 12.018 26.2422C12.5995 27.2718 13.4855 28.0808 14.3566 28.8623C15.1702 29.5184 16.0643 30.0942 17.0595 30.4332C17.9535 30.717 18.8568 31.0377 19.8071 31.0422C20.8138 31.0572 21.8331 31.1101 22.8295 30.9204C23.7936 30.6665 24.7601 30.3746 25.6438 29.9034C26.6528 29.3116 27.6169 28.6244 28.4213 27.7683C30.0256 26.1583 31.6701 24.5885 33.2961 23.0015C34.7809 21.5363 36.2633 20.0688 37.7446 18.599C39.3557 17.1464 40.8278 15.5491 42.4194 14.0747C43.1675 13.3714 43.88 12.6302 44.6212 11.9189C45.4371 11.2592 46.4197 10.6961 47.4999 10.7088C48.756 10.6203 49.9637 11.1799 50.9474 11.9177C51.8357 12.6543 52.5942 13.6104 52.9263 14.7297C53.2676 15.4227 53.0849 16.2214 53.1182 16.9649C52.8964 18.2324 52.0345 19.2724 51.0899 20.1021C48.3124 22.7981 45.6061 25.5676 42.8159 28.2498C41.114 29.8827 39.4764 31.5835 37.7411 33.182C36.2909 34.5783 34.9395 36.0929 33.3122 37.288C31.8493 38.4349 30.1876 39.3002 28.4834 40.0311C27.2653 40.5666 25.9564 40.847 24.6624 41.132C23.958 41.3434 23.2075 41.2722 22.4985 41.471C21.5263 41.5595 20.5461 41.4997 19.5716 41.5124C19.0625 41.5353 18.5821 41.3377 18.0811 41.2975C17.0997 41.3032 16.1585 40.9826 15.2127 40.7608C13.9475 40.4574 12.7489 39.938 11.5929 39.3473C9.65765 38.4429 7.92699 37.1513 6.36756 35.701C5.01384 34.461 3.93591 32.9648 2.94303 31.4295C1.96968 29.7701 1.22961 27.9809 0.67456 26.141C0.433234 25.6848 0.575732 25.1447 0.378074 24.677C0.264306 24.3816 0.251665 24.0599 0.237875 23.7473C0.240173 23.244 0.0172334 22.774 0.0126367 22.2695C-0.0103467 21.3076 0.0045925 20.3446 0.00689084 19.3827C0.00344332 19.0058 0.0884821 18.6369 0.197654 18.2795C0.280394 17.8072 0.196504 17.3085 0.379223 16.8534C0.567687 16.4156 0.432085 15.9065 0.652726 15.4779C1.19743 13.5737 1.97427 11.7338 2.99129 10.0319C3.87616 8.65176 4.83457 7.30264 6.02511 6.1661C7.57879 4.55726 9.43011 3.25869 11.4044 2.21869C13.2442 1.28901 15.2323 0.699487 17.2422 0.270845Z"
    fill="#FE7500" />
  <path
    d="M54.7952 2.54852C55.5445 2.50945 56.3201 2.45544 57.0384 2.71745C58.6346 3.07025 59.9423 4.29871 60.5755 5.7823C60.7387 6.20289 60.9789 6.6143 60.918 7.08316C60.8605 7.82782 61.0708 8.62995 60.7249 9.3252C60.2446 10.6421 59.2908 11.8327 57.9922 12.4107C57.4682 12.6348 56.9338 12.8888 56.3523 12.8865C55.6904 12.8934 55.0112 12.9485 54.3631 12.7842C53.6885 12.5417 53.0358 12.2223 52.4612 11.7913C51.481 10.9961 50.8156 9.83198 50.6007 8.59202C50.5501 8.01399 50.549 7.42906 50.6019 6.85103C50.888 5.23644 51.9705 3.77009 53.4564 3.06335C53.8885 2.8588 54.3298 2.65999 54.7952 2.54852Z"
    fill="#FE7500" />
  <path
    d="M44.24 28.6487C46.5406 26.34 48.8631 24.0543 51.1603 21.7422C53.192 23.8819 55.349 25.9045 57.3911 28.0328C57.4623 28.4522 57.4934 28.959 57.1245 29.2532C55.5628 30.8241 53.9884 32.3824 52.4301 33.9556C51.9842 34.3555 51.5567 34.7773 51.1603 35.2254C50.9281 35.5254 50.434 35.5116 50.1295 35.3714C48.4448 33.6499 46.7233 31.9618 45.0271 30.2507C44.6583 29.8599 44.1894 29.5474 43.9297 29.067C44.0147 28.9153 44.1159 28.7717 44.24 28.6487Z"
    fill="#FE7500" />
  <path
    d="M57.4631 30.4862C57.7263 30.2943 58.1595 30.3195 58.3836 30.5666C59.2937 31.5698 60.3142 32.4662 61.2404 33.4533C61.5001 33.6901 61.5185 34.1612 61.2289 34.3842C59.6109 36.0355 57.9538 37.649 56.33 39.2946C56.0645 39.3245 55.7209 39.4003 55.5244 39.1693C54.5971 38.1753 53.5892 37.2594 52.6618 36.2654C52.3929 36.0091 52.4067 35.5207 52.6917 35.2828C54.2557 33.6579 55.8795 32.0916 57.4631 30.4862Z"
    fill="#FE7500" />
</svg>
  