<svg width="36" height="35" viewBox="0 0 36 35" fill="none" xmlns="http://www.w3.org/2000/svg">
<mask id="path-1-inside-1_741_187" fill="white">
<path d="M20.1813 12.1792L21.875 6.25L23.5687 12.1792C24.0065 13.7107 24.8273 15.1055 25.9536 16.2318C27.08 17.3581 28.4747 18.1789 30.0062 18.6167L35.9375 20.3125L30.0083 22.0063C28.4768 22.444 27.082 23.2648 25.9557 24.3911C24.8294 25.5175 24.0086 26.9122 23.5708 28.4438L21.875 34.375L20.1813 28.4458C19.7435 26.9143 18.9227 25.5195 17.7964 24.3932C16.67 23.2669 15.2753 22.4461 13.7438 22.0083L7.8125 20.3125L13.7417 18.6188C15.2732 18.181 16.668 17.3602 17.7943 16.2339C18.9206 15.1075 19.7414 13.7128 20.1792 12.1813L20.1813 12.1792ZM5.42917 2.46458L6.25 0L7.07083 2.46458C7.30096 3.15494 7.68865 3.78223 8.20321 4.29679C8.71777 4.81135 9.34507 5.19905 10.0354 5.42917L12.5 6.25L10.0354 7.07083C9.34507 7.30095 8.71777 7.68865 8.20321 8.20321C7.68865 8.71777 7.30096 9.34507 7.07083 10.0354L6.25 12.5L5.42917 10.0354C5.19905 9.34507 4.81135 8.71777 4.29679 8.20321C3.78223 7.68865 3.15494 7.30095 2.46458 7.07083L0 6.25L2.46458 5.42917C3.15494 5.19905 3.78223 4.81135 4.29679 4.29679C4.81135 3.78223 5.19905 3.15494 5.42917 2.46458Z"/>
</mask>
<path d="M20.1813 12.1792L37.1518 29.1497C40.0361 26.2654 42.1377 22.6935 43.2581 18.7714L20.1813 12.1792ZM21.875 6.25L44.9519 -0.342232C42.0085 -10.646 32.5909 -17.75 21.875 -17.75C11.1591 -17.75 1.74154 -10.646 -1.20188 -0.342236L21.875 6.25ZM23.5687 12.1792L0.491867 18.7714L0.492901 18.775L23.5687 12.1792ZM30.0062 18.6167L36.6038 -4.45868L36.6021 -4.45918L30.0062 18.6167ZM35.9375 20.3125L42.5297 43.3894C52.8325 40.4462 59.9363 31.0302 59.9375 20.3153C59.9387 9.60037 52.8372 0.182671 42.5351 -2.76285L35.9375 20.3125ZM30.0083 22.0063L23.4161 -1.07063L23.4125 -1.0696L30.0083 22.0063ZM23.5708 28.4438L46.6462 35.0413L46.6467 35.0396L23.5708 28.4438ZM21.875 34.375L-1.20188 40.9672C1.74125 51.27 11.1573 58.3738 21.8722 58.375C32.5871 58.3762 42.0048 51.2747 44.9504 40.9726L21.875 34.375ZM20.1813 28.4458L43.2581 21.8536L43.2571 21.85L20.1813 28.4458ZM13.7438 22.0083L7.14616 45.0837L7.1479 45.0842L13.7438 22.0083ZM7.8125 20.3125L1.22027 -2.76438C-9.08251 0.178749 -16.1863 9.5948 -16.1875 20.3097C-16.1887 31.0246 -9.08719 40.4423 1.2149 43.3878L7.8125 20.3125ZM13.7417 18.6188L20.3339 41.6956L20.3375 41.6946L13.7417 18.6188ZM20.1792 12.1813L3.2086 -4.78931C0.325188 -1.9059 -1.776 1.66466 -2.89668 5.5854L20.1792 12.1813ZM5.42917 2.46458L28.1975 10.0543L28.1995 10.0483L5.42917 2.46458ZM6.25 0L29.0203 -7.58367C25.7554 -17.3868 16.5826 -24 6.25 -24C-4.08258 -24 -13.2554 -17.3868 -16.5203 -7.58367L6.25 0ZM7.07083 2.46458L-15.6995 10.0483L-15.6975 10.0543L7.07083 2.46458ZM10.0354 5.42917L2.44575 28.1975L2.45174 28.1995L10.0354 5.42917ZM12.5 6.25L20.0837 29.0203C29.8868 25.7554 36.5 16.5826 36.5 6.25C36.5 -4.08258 29.8868 -13.2554 20.0837 -16.5203L12.5 6.25ZM10.0354 7.07083L2.45174 -15.6995L2.44575 -15.6975L10.0354 7.07083ZM7.07083 10.0354L-15.6975 2.44575L-15.6995 2.45175L7.07083 10.0354ZM6.25 12.5L-16.5203 20.0837C-13.2554 29.8868 -4.08258 36.5 6.25 36.5C16.5826 36.5 25.7554 29.8868 29.0203 20.0837L6.25 12.5ZM5.42917 10.0354L28.1995 2.45175L28.1975 2.44575L5.42917 10.0354ZM2.46458 7.07083L10.0543 -15.6975L10.0483 -15.6995L2.46458 7.07083ZM0 6.25L-7.58367 -16.5203C-17.3868 -13.2554 -24 -4.08258 -24 6.25C-24 16.5826 -17.3868 25.7554 -7.58367 29.0203L0 6.25ZM2.46458 5.42917L10.0483 28.1995L10.0543 28.1975L2.46458 5.42917ZM43.2581 18.7714L44.9519 12.8422L-1.20188 -0.342236L-2.89563 5.58693L43.2581 18.7714ZM-1.20188 12.8422L0.491867 18.7714L46.6456 5.58694L44.9519 -0.342232L-1.20188 12.8422ZM0.492901 18.775C2.05135 24.2273 4.97332 29.1926 8.98306 33.2024L42.9242 -0.738773C44.6813 1.01831 45.9617 3.19411 46.6446 5.58332L0.492901 18.775ZM8.98306 33.2024C12.9928 37.2121 17.9581 40.1341 23.4104 41.6925L36.6021 -4.45918C38.9913 -3.77627 41.1671 -2.49586 42.9242 -0.738773L8.98306 33.2024ZM23.4087 41.692L29.3399 43.3879L42.5351 -2.76285L36.6038 -4.45868L23.4087 41.692ZM29.3453 -2.76438L23.4161 -1.07063L36.6006 45.0831L42.5297 43.3894L29.3453 -2.76438ZM23.4125 -1.0696C17.9602 0.488846 12.9949 3.41081 8.98515 7.42056L42.9263 41.3617C41.1692 43.1188 38.9934 44.3992 36.6042 45.0821L23.4125 -1.0696ZM8.98515 7.42056C4.97539 11.4303 2.05343 16.3956 0.494987 21.8479L46.6467 35.0396C45.9638 37.4288 44.6834 39.6046 42.9263 41.3617L8.98515 7.42056ZM0.495483 21.8462L-1.20035 27.7774L44.9504 40.9726L46.6462 35.0413L0.495483 21.8462ZM44.9519 27.7828L43.2581 21.8536L-2.89563 35.0381L-1.20188 40.9672L44.9519 27.7828ZM43.2571 21.85C41.6987 16.3977 38.7767 11.4324 34.7669 7.42265L0.825809 41.3638C-0.931267 39.6067 -2.21168 37.4309 -2.8946 35.0417L43.2571 21.85ZM34.7669 7.42265C30.7572 3.4129 25.7919 0.490932 20.3396 -1.06751L7.1479 45.0842C4.7587 44.4013 2.5829 43.1209 0.825809 41.3638L34.7669 7.42265ZM20.3413 -1.06701L14.4101 -2.76285L1.2149 43.3878L7.14616 45.0837L20.3413 -1.06701ZM14.4047 43.3894L20.3339 41.6956L7.14944 -4.45813L1.22027 -2.76438L14.4047 43.3894ZM20.3375 41.6946C25.7898 40.1362 30.7551 37.2142 34.7649 33.2044L0.823727 -0.736691C2.58081 -2.49377 4.75661 -3.77418 7.14582 -4.4571L20.3375 41.6946ZM34.7649 33.2044C38.7746 29.1947 41.6966 24.2294 43.255 18.7771L-2.89668 5.5854C-2.21377 3.1962 -0.933357 1.0204 0.823727 -0.736691L34.7649 33.2044ZM37.1497 29.1518L37.1518 29.1497L3.21069 -4.7914L3.2086 -4.78931L37.1497 29.1518ZM28.1995 10.0483L29.0203 7.58367L-16.5203 -7.58367L-17.3412 -5.11909L28.1995 10.0483ZM-16.5203 7.58367L-15.6995 10.0483L29.8412 -5.11909L29.0203 -7.58367L-16.5203 7.58367ZM-15.6975 10.0543C-14.2891 14.2792 -11.9165 18.1183 -8.76735 21.2674L25.1738 -12.6738C27.2938 -10.5538 28.8911 -7.96934 29.8392 -5.12508L-15.6975 10.0543ZM-8.76735 21.2674C-5.61825 24.4165 -1.77921 26.7891 2.44575 28.1975L17.6251 -17.3392C20.4693 -16.391 23.0538 -14.7938 25.1738 -12.6738L-8.76735 21.2674ZM2.45174 28.1995L4.91632 29.0203L20.0837 -16.5203L17.6191 -17.3412L2.45174 28.1995ZM4.91632 -16.5203L2.45174 -15.6995L17.6191 29.8412L20.0837 29.0203L4.91632 -16.5203ZM2.44575 -15.6975C-1.77921 -14.2891 -5.61825 -11.9165 -8.76735 -8.76735L25.1738 25.1738C23.0538 27.2938 20.4693 28.891 17.6251 29.8392L2.44575 -15.6975ZM-8.76735 -8.76735C-11.9165 -5.61824 -14.2891 -1.77919 -15.6975 2.44575L29.8392 17.6251C28.8911 20.4693 27.2938 23.0538 25.1738 25.1738L-8.76735 -8.76735ZM-15.6995 2.45175L-16.5203 4.91633L29.0203 20.0837L29.8412 17.6191L-15.6995 2.45175ZM29.0203 4.91633L28.1995 2.45175L-17.3412 17.6191L-16.5203 20.0837L29.0203 4.91633ZM28.1975 2.44575C26.7891 -1.77919 24.4165 -5.61824 21.2674 -8.76735L-12.6738 25.1738C-14.7938 23.0538 -16.3911 20.4693 -17.3392 17.6251L28.1975 2.44575ZM21.2674 -8.76735C18.1182 -11.9165 14.2792 -14.2891 10.0543 -15.6975L-5.12508 29.8392C-7.96932 28.8911 -10.5538 27.2938 -12.6738 25.1738L21.2674 -8.76735ZM10.0483 -15.6995L7.58367 -16.5203L-7.58367 29.0203L-5.11909 29.8412L10.0483 -15.6995ZM7.58367 29.0203L10.0483 28.1995L-5.11909 -17.3412L-7.58367 -16.5203L7.58367 29.0203ZM10.0543 28.1975C14.2792 26.7891 18.1182 24.4165 21.2674 21.2674L-12.6738 -12.6738C-10.5538 -14.7938 -7.96932 -16.3911 -5.12508 -17.3392L10.0543 28.1975ZM21.2674 21.2674C24.4165 18.1183 26.7891 14.2792 28.1975 10.0543L-17.3392 -5.12508C-16.391 -7.96934 -14.7938 -10.5538 -12.6738 -12.6738L21.2674 21.2674Z" fill="#FF7600" mask="url(#path-1-inside-1_741_187)"/>
</svg>
